<svg width="183" height="56" viewBox="0 0 183 56" fill="none" xmlns="http://www.w3.org/2000/svg">
<rect width="55.6265" height="55.6265" rx="15" fill="white"/>
<path d="M16.996 9.32278C16.2748 9.82085 15.8174 10.3927 15.5359 11.1398C15.3248 11.7209 15.2985 11.9053 15.3248 12.5971C15.3512 13.2058 15.404 13.4917 15.5799 13.8883C15.7822 14.3311 16.3539 15.0505 16.7321 15.318C17.2599 15.7054 16.908 15.6869 25.1142 15.733L32.9422 15.7791L33.6986 16.1665C36.2845 17.4947 37.8061 19.9297 37.7622 22.6967C37.7094 26.0171 35.9943 28.2307 32.8103 29.0608C31.834 29.319 30.286 29.4758 28.7995 29.4758C27.5682 29.4758 27.3131 29.5035 26.9613 29.6603C25.9938 30.0938 25.3253 30.8224 25.0263 31.7724C24.824 32.4365 24.8768 33.5526 25.167 34.3089C25.5364 35.305 26.5919 36.172 27.6122 36.338C28.6852 36.5133 31.7021 36.3657 33.2061 36.0613C34.2791 35.8584 35.7392 35.4618 36.1086 35.2865C36.2054 35.2404 36.522 35.1021 36.8122 34.973C37.5335 34.6686 39.1167 33.7831 39.231 33.6171C39.2574 33.5894 39.4333 33.4603 39.6268 33.3312C40.4536 32.787 41.7729 31.2098 42.4941 29.9186C43.1714 28.7103 43.7607 26.9302 43.9894 25.4176C44.1653 24.2093 44.1917 21.1471 44.0245 20.0588C43.6991 17.8544 43.1626 16.3602 42.1247 14.7185C40.6823 12.4311 38.2107 10.5679 35.361 9.61793C33.4612 8.98152 33.8042 8.99997 25.211 8.99997H17.4622L16.996 9.32278Z" fill="url(#paint0_linear_1793_69)"/>
<path d="M20.8666 18.5552C20.3301 18.6197 19.732 18.7212 19.5473 18.7765C19.0635 18.9426 17.9465 19.5329 17.4539 19.8926C16.5392 20.5474 15.6245 21.8018 15.2023 22.9824L15 23.5266V33.5893V43.6427L15.3342 44.3437C15.8356 45.4228 16.5568 45.9855 17.6826 46.1884C19.0547 46.4374 20.374 45.801 21.0777 44.5558C21.5438 43.7165 21.5526 43.6243 21.5526 35.2402V27.4926L21.7813 26.9853C21.9045 26.7086 22.0716 26.4043 22.1507 26.3028C22.4322 25.9708 22.9775 25.6848 23.646 25.5096C24.2617 25.3436 24.6575 25.3251 27.9294 25.3251C30.0315 25.3251 31.7026 25.279 31.9313 25.2237C32.89 25.0023 33.664 24.3843 34.139 23.462C34.4293 22.8994 34.438 22.8533 34.438 21.8664C34.438 20.9348 34.4117 20.8057 34.1918 20.363C33.7168 19.413 32.8637 18.7304 31.861 18.5091C31.1837 18.3615 22.1859 18.3892 20.8666 18.5552Z" fill="url(#paint1_linear_1793_69)"/>
<path d="M45.3929 34.0221C45.3841 34.8061 45.3929 34.8245 45.56 34.7323C45.6568 34.6769 45.7359 34.6216 45.7359 34.6124C45.7272 34.6031 45.6568 34.2803 45.56 33.9022L45.3929 33.2104V34.0221Z" fill="url(#paint2_linear_1793_69)"/>
<path d="M86.8609 20.8351C89.8849 20.8351 92.098 21.4261 93.5 22.6082C94.9296 23.7629 95.6444 25.5636 95.6444 28.0103C95.6444 30.4296 94.9296 32.2165 93.5 33.3711C92.0705 34.4983 89.8712 35.0619 86.9021 35.0619H83.3557V41H79.933V20.8351H86.8609ZM87.2732 32.0103C89.0877 32.0103 90.3523 31.6667 91.0671 30.9794C91.8093 30.2921 92.1805 29.2062 92.1805 27.7216C92.1805 26.3471 91.7543 25.3711 90.9021 24.7938C90.0499 24.2165 88.6753 23.9278 86.7784 23.9278H83.3557V32.0103H87.2732ZM102.462 34.4021V41H99.245V25.6598H102.462V28.7113C102.984 27.7491 103.685 26.9656 104.565 26.3608C105.472 25.756 106.42 25.4399 107.41 25.4124L107.451 28.6701H107.286C105.719 28.6701 104.523 29.1787 103.699 30.1959C102.874 31.2131 102.462 32.6151 102.462 34.4021ZM117.742 38.3608C119.144 38.3608 120.299 37.8935 121.206 36.9588C122.141 36.0241 122.608 34.8144 122.608 33.3299C122.608 31.8454 122.141 30.6357 121.206 29.701C120.299 28.7663 119.144 28.299 117.742 28.299C116.34 28.299 115.185 28.7663 114.278 29.701C113.371 30.6357 112.917 31.8454 112.917 33.3299C112.917 34.8144 113.371 36.0103 114.278 36.9175C115.185 37.8797 116.34 38.3608 117.742 38.3608ZM117.742 41.2474C115.433 41.2474 113.508 40.4914 111.969 38.9794C110.429 37.4399 109.659 35.5567 109.659 33.3299C109.659 31.1031 110.429 29.2337 111.969 27.7216C113.508 26.1821 115.433 25.4124 117.742 25.4124C120.051 25.4124 121.976 26.1821 123.515 27.7216C125.055 29.2337 125.824 31.1031 125.824 33.3299C125.824 35.4742 125.055 37.3436 123.515 38.9381C121.976 40.4777 120.051 41.2474 117.742 41.2474ZM133.438 25.6598H137.479V28.2577H133.438V41H130.222V28.2577H128.284V25.6598H130.222V24.4639C130.222 22.8969 130.703 21.6323 131.665 20.6701C132.627 19.6804 133.809 19.1856 135.211 19.1856C136.613 19.1856 137.864 19.6942 138.964 20.7113L137.644 22.9794C136.985 22.3196 136.325 21.9897 135.665 21.9897C134.978 21.9897 134.428 22.2096 134.016 22.6495C133.631 23.0619 133.438 23.6392 133.438 24.3814V25.6598ZM143.829 41H140.612V25.6598H143.829V41ZM140.2 21.1237C140.2 20.5739 140.392 20.1065 140.777 19.7216C141.19 19.3093 141.684 19.1031 142.262 19.1031C142.812 19.1031 143.279 19.3093 143.664 19.7216C144.076 20.1065 144.282 20.5739 144.282 21.1237C144.282 21.701 144.076 22.1959 143.664 22.6082C143.279 22.9931 142.812 23.1856 142.262 23.1856C141.684 23.1856 141.203 22.9794 140.818 22.567C140.406 22.1821 140.2 21.701 140.2 21.1237ZM152.501 28.2577V36.0515C152.501 36.7938 152.693 37.3849 153.078 37.8247C153.49 38.2371 154.04 38.4433 154.727 38.4433C155.36 38.4433 156.02 38.0997 156.707 37.4124L158.026 39.7216C156.872 40.7388 155.621 41.2474 154.274 41.2474C152.872 41.2474 151.69 40.7663 150.727 39.8041C149.765 38.8144 149.284 37.5361 149.284 35.9691V28.2577H147.346V25.6598H149.284V20.8351H152.501V25.6598H156.542V28.2577H152.501ZM165.891 41.2474C163.416 41.2474 161.19 40.4777 159.21 38.9381L160.777 36.4227C162.537 37.7698 164.269 38.4433 165.973 38.4433C166.688 38.4433 167.251 38.2784 167.664 37.9485C168.104 37.5911 168.324 37.1512 168.324 36.6289C168.324 35.8591 167.306 35.1718 165.272 34.567C165.217 34.5395 165.148 34.512 165.066 34.4845C165.011 34.457 164.97 34.4433 164.942 34.4433C161.753 33.5911 160.159 32.1478 160.159 30.1134C160.159 28.6838 160.695 27.543 161.767 26.6907C162.867 25.8385 164.31 25.4124 166.097 25.4124C167.856 25.4124 169.533 25.9347 171.128 26.9794L169.932 29.3711C168.695 28.5464 167.334 28.134 165.849 28.134C164.117 28.134 163.251 28.6838 163.251 29.7835C163.251 30.2509 163.416 30.5945 163.746 30.8144C164.104 31.0069 164.681 31.1993 165.478 31.3918C166.688 31.7216 167.705 32.0515 168.53 32.3814C169.08 32.6289 169.561 32.89 169.973 33.1649C171.018 33.8797 171.54 34.9656 171.54 36.4227C171.54 37.8522 171.004 39.0206 169.932 39.9278C168.887 40.8076 167.54 41.2474 165.891 41.2474Z" fill="white"/>
<defs>
<linearGradient id="paint0_linear_1793_69" x1="29.7265" y1="8.99991" x2="29.7265" y2="36.4131" gradientUnits="userSpaceOnUse">
<stop stop-color="#FF6B00"/>
<stop offset="1" stop-color="#FF7A00"/>
</linearGradient>
<linearGradient id="paint1_linear_1793_69" x1="24.719" y1="46.2417" x2="24.719" y2="18.4129" gradientUnits="userSpaceOnUse">
<stop stop-color="#FFA800"/>
<stop offset="1" stop-color="#FF6B00"/>
</linearGradient>
<linearGradient id="paint2_linear_1793_69" x1="45.5633" y1="34.7705" x2="45.5633" y2="33.2104" gradientUnits="userSpaceOnUse">
<stop stop-color="#FFA800"/>
<stop offset="1" stop-color="#FF6B00"/>
</linearGradient>
</defs>
</svg>
