<svg width="155" height="42" viewBox="0 0 155 42" fill="none" xmlns="http://www.w3.org/2000/svg">
<path d="M16.2156 8.82025C15.6593 9.19027 15.3066 9.61511 15.0895 10.1701C14.9267 10.6018 14.9063 10.7389 14.9267 11.2528C14.947 11.7051 14.9877 11.9175 15.1234 12.2121C15.2794 12.541 15.7204 13.0755 16.0121 13.2742C16.4191 13.562 16.1478 13.5483 22.477 13.5826L28.5145 13.6168L29.0979 13.9046C31.0923 14.8914 32.2659 16.7003 32.232 18.756C32.1913 21.2228 30.8685 22.8674 28.4127 23.4841C27.6597 23.6759 26.4658 23.7924 25.3194 23.7924C24.3696 23.7924 24.1729 23.813 23.9016 23.9295C23.1553 24.2515 22.6398 24.7929 22.4091 25.4986C22.2531 25.992 22.2938 26.8211 22.5177 27.383C22.8026 28.1231 23.6166 28.7672 24.4036 28.8905C25.2312 29.0207 27.558 28.9111 28.718 28.6849C29.5456 28.5342 30.6717 28.2395 30.9566 28.1094C31.0313 28.0751 31.2755 27.9723 31.4993 27.8764C32.0556 27.6503 33.2767 26.9924 33.3649 26.8691C33.3852 26.8485 33.5209 26.7526 33.6701 26.6567C34.3078 26.2524 35.3254 25.0807 35.8816 24.1213C36.404 23.2237 36.8585 21.9012 37.0349 20.7774C37.1705 19.8798 37.1909 17.6048 37.062 16.7963C36.811 15.1586 36.3972 14.0485 35.5967 12.8288C34.4842 11.1295 32.578 9.74531 30.38 9.03952C28.9147 8.56672 29.1793 8.58042 22.5516 8.58042H16.5751L16.2156 8.82025Z" fill="white"/>
<path d="M19.202 15.6796C18.7882 15.7275 18.3269 15.8029 18.1844 15.844C17.8113 15.9673 16.9498 16.4059 16.5699 16.6731C15.8644 17.1596 15.1589 18.0915 14.8333 18.9686L14.6772 19.3729V26.8487V34.3177L14.935 34.8385C15.3217 35.6402 15.878 36.0582 16.7463 36.2089C17.8045 36.3939 18.8221 35.9211 19.3648 34.9961C19.7243 34.3725 19.7311 34.304 19.7311 28.0753V22.3194L19.9075 21.9425C20.0025 21.7369 20.1314 21.5108 20.1924 21.4354C20.4095 21.1888 20.8301 20.9763 21.3457 20.8462C21.8205 20.7228 22.1258 20.7091 24.6493 20.7091C26.2706 20.7091 27.5596 20.6748 27.7359 20.6337C28.4754 20.4693 29.0723 20.0102 29.4387 19.325C29.6625 18.907 29.6693 18.8727 29.6693 18.1395C29.6693 17.4474 29.6489 17.3515 29.4794 17.0226C29.113 16.3168 28.455 15.8097 27.6817 15.6453C27.1593 15.5357 20.2196 15.5562 19.202 15.6796Z" fill="url(#paint0_linear_502_2137)"/>
<g clip-path="url(#clip0_502_2137)">
<rect width="42" height="42" rx="5" fill="#E7552F"/>
<rect x="-33" y="-30" width="545" height="542" rx="100" fill="#FF4D00"/>
<path d="M24.8798 17.8745C24.5968 18.7473 23.706 19.294 22.7943 19.294H18.7805C17.5963 19.294 16.6426 20.2509 16.6426 21.439V30.9548C16.6426 31.5436 16.412 32.0694 16.0243 32.4479C15.4584 33.0157 14.5466 33.268 13.6768 32.879C12.8803 32.5215 12.4297 31.6593 12.4297 30.7866V19.2625C12.4297 16.9492 14.2951 15.0776 16.6007 15.0776H22.8781C24.2615 15.0776 25.3409 16.4235 24.8798 17.8851V17.8745Z" fill="white"/>
<path d="M31 17.1804C31 20.6923 28.642 23.689 25.3304 24.8456C24.3872 25.1821 23.3602 25.3608 22.2912 25.3608H20.4573C19.8704 25.3608 19.3254 25.119 18.9482 24.73C18.5604 24.3409 18.3194 23.8047 18.3194 23.2053C18.3194 22.0172 19.273 21.0603 20.4573 21.0603H22.9305C25.0684 21.0603 26.7976 19.3254 26.7976 17.1804C26.7976 16.1079 26.3679 15.1406 25.6657 14.4466C24.9636 13.7421 23.9994 13.311 22.9305 13.311H14.1484C13.5615 13.311 13.0165 13.0692 12.6288 12.6801C12.241 12.2911 12 11.7548 12 11.1555C12 9.96735 12.9641 9 14.1484 9H22.2912C27.1015 9 31 12.6591 31 17.1804Z" fill="white"/>
</g>
<path d="M68.8609 8.83505C71.8849 8.83505 74.098 9.42612 75.5 10.6082C76.9296 11.7629 77.6444 13.5636 77.6444 16.0103C77.6444 18.4296 76.9296 20.2165 75.5 21.3711C74.0705 22.4983 71.8712 23.0619 68.9021 23.0619H65.3557V29H61.933V8.83505H68.8609ZM69.2732 20.0103C71.0877 20.0103 72.3523 19.6667 73.0671 18.9794C73.8093 18.2921 74.1805 17.2062 74.1805 15.7216C74.1805 14.3471 73.7543 13.3711 72.9021 12.7938C72.0499 12.2165 70.6753 11.9278 68.7784 11.9278H65.3557V20.0103H69.2732ZM84.4615 22.4021V29H81.245V13.6598H84.4615V16.7113C84.9839 15.7491 85.6849 14.9656 86.5646 14.3608C87.4719 13.756 88.4203 13.4399 89.41 13.4124L89.4512 16.6701H89.2863C87.7193 16.6701 86.5234 17.1787 85.6987 18.1959C84.8739 19.2131 84.4615 20.6151 84.4615 22.4021ZM99.7419 26.3608C101.144 26.3608 102.299 25.8935 103.206 24.9588C104.141 24.0241 104.608 22.8144 104.608 21.3299C104.608 19.8454 104.141 18.6357 103.206 17.701C102.299 16.7663 101.144 16.299 99.7419 16.299C98.3398 16.299 97.1852 16.7663 96.278 17.701C95.3708 18.6357 94.9172 19.8454 94.9172 21.3299C94.9172 22.8144 95.3708 24.0103 96.278 24.9175C97.1852 25.8797 98.3398 26.3608 99.7419 26.3608ZM99.7419 29.2474C97.4326 29.2474 95.5082 28.4914 93.9687 26.9794C92.4292 25.4399 91.6594 23.5567 91.6594 21.3299C91.6594 19.1031 92.4292 17.2337 93.9687 15.7216C95.5082 14.1821 97.4326 13.4124 99.7419 13.4124C102.051 13.4124 103.976 14.1821 105.515 15.7216C107.055 17.2337 107.824 19.1031 107.824 21.3299C107.824 23.4742 107.055 25.3436 105.515 26.9381C103.976 28.4777 102.051 29.2474 99.7419 29.2474ZM115.438 13.6598H119.479V16.2577H115.438V29H112.222V16.2577H110.284V13.6598H112.222V12.4639C112.222 10.8969 112.703 9.6323 113.665 8.6701C114.627 7.68041 115.809 7.18557 117.211 7.18557C118.613 7.18557 119.864 7.69416 120.964 8.71134L119.644 10.9794C118.985 10.3196 118.325 9.98969 117.665 9.98969C116.978 9.98969 116.428 10.2096 116.016 10.6495C115.631 11.0619 115.438 11.6392 115.438 12.3814V13.6598ZM125.829 29H122.612V13.6598H125.829V29ZM122.2 9.12371C122.2 8.57388 122.392 8.10653 122.777 7.72165C123.19 7.30928 123.684 7.10309 124.262 7.10309C124.812 7.10309 125.279 7.30928 125.664 7.72165C126.076 8.10653 126.282 8.57388 126.282 9.12371C126.282 9.70103 126.076 10.1959 125.664 10.6082C125.279 10.9931 124.812 11.1856 124.262 11.1856C123.684 11.1856 123.203 10.9794 122.818 10.567C122.406 10.1821 122.2 9.70103 122.2 9.12371ZM134.501 16.2577V24.0515C134.501 24.7938 134.693 25.3849 135.078 25.8247C135.49 26.2371 136.04 26.4433 136.727 26.4433C137.36 26.4433 138.02 26.0997 138.707 25.4124L140.026 27.7216C138.872 28.7388 137.621 29.2474 136.274 29.2474C134.872 29.2474 133.69 28.7663 132.727 27.8041C131.765 26.8144 131.284 25.5361 131.284 23.9691V16.2577H129.346V13.6598H131.284V8.83505H134.501V13.6598H138.542V16.2577H134.501ZM147.891 29.2474C145.416 29.2474 143.19 28.4777 141.21 26.9381L142.777 24.4227C144.537 25.7698 146.269 26.4433 147.973 26.4433C148.688 26.4433 149.251 26.2784 149.664 25.9485C150.104 25.5911 150.324 25.1512 150.324 24.6289C150.324 23.8591 149.306 23.1718 147.272 22.567C147.217 22.5395 147.148 22.512 147.066 22.4845C147.011 22.457 146.97 22.4433 146.942 22.4433C143.753 21.5911 142.159 20.1478 142.159 18.1134C142.159 16.6838 142.695 15.543 143.767 14.6907C144.867 13.8385 146.31 13.4124 148.097 13.4124C149.856 13.4124 151.533 13.9347 153.128 14.9794L151.932 17.3711C150.695 16.5464 149.334 16.134 147.849 16.134C146.117 16.134 145.251 16.6838 145.251 17.7835C145.251 18.2509 145.416 18.5945 145.746 18.8144C146.104 19.0069 146.681 19.1993 147.478 19.3918C148.688 19.7216 149.705 20.0515 150.53 20.3814C151.08 20.6289 151.561 20.89 151.973 21.1649C153.018 21.8797 153.54 22.9656 153.54 24.4227C153.54 25.8522 153.004 27.0206 151.932 27.9278C150.887 28.8076 149.54 29.2474 147.891 29.2474Z" fill="#292929"/>
<defs>
<linearGradient id="paint0_linear_502_2137" x1="22.1733" y1="36.2485" x2="22.1733" y2="15.5739" gradientUnits="userSpaceOnUse">
<stop stop-color="white"/>
<stop offset="1" stop-color="white"/>
</linearGradient>
<clipPath id="clip0_502_2137">
<rect width="42" height="42" rx="5" fill="white"/>
</clipPath>
</defs>
</svg>
